<svg width="184" height="43" fill="none" xmlns="http://www.w3.org/2000/svg"><path d="M20.076 22.832c.02.684-.039 1.523-.176 2.52-.136.976-.293 2.03-.468 3.164a144.245 144.245 0 00-.498 3.427 25.103 25.103 0 00-.235 3.31c0 .684.049 1.339.147 1.964.097.605.263 1.133.498 1.582.136.254.205.478.205.674.02.195.01.37-.03.527a3.666 3.666 0 01-.117.352.457.457 0 000 .322c.04.098.03.205-.029.322a.928.928 0 01-.264.352.87.87 0 01-.41.234.378.378 0 01-.38-.03c-.215-.136-.391-.214-.528-.234a.888.888 0 00-.322 0c-.078.04-.157.079-.235.117-.058.04-.136.04-.234 0-.332-.175-.693-.38-1.084-.615-.39-.234-.645-.488-.762-.761-.078-.118-.156-.313-.234-.586a18.338 18.338 0 01-.176-.967 85.284 85.284 0 01-.117-1.201c-.04-.43-.068-.85-.088-1.26-.644 1.21-1.338 2.217-2.08 3.017-.723.801-1.455 1.436-2.197 1.905-.723.488-1.446.83-2.168 1.025-.703.196-1.348.293-1.934.293-.605 0-1.142-.078-1.611-.234-.45-.157-.801-.342-1.055-.557-.957-.957-1.64-1.728-2.05-2.314-.391-.606-.567-1.094-.528-1.465.098-1.25.4-2.403.908-3.457a13.056 13.056 0 011.905-2.9c.761-.899 1.61-1.7 2.548-2.403a25.473 25.473 0 012.9-1.904 22.13 22.13 0 012.93-1.406 29.066 29.066 0 012.608-.938 73.974 73.974 0 00-.147-2.754c-.039-.8-.107-1.387-.205-1.758-.293-1.21-.742-2.11-1.347-2.695a2.993 2.993 0 00-2.198-.908c-.546 0-1.103.205-1.67.615-.546.41-1.044.967-1.494 1.67-.449.703-.82 1.514-1.113 2.432-.273.918-.42 1.884-.44 2.9 0 .254.01.498.03.732.02.235.049.479.088.733.02.137-.03.234-.147.293a1.411 1.411 0 01-.38.146c-.157.02-.323.04-.499.059a2.24 2.24 0 00-.44.088 4.62 4.62 0 01-.233.088.554.554 0 01-.176-.03 3.616 3.616 0 01-.235-.175 3.43 3.43 0 00-.351-.293 2.566 2.566 0 00-.498-.293 8.313 8.313 0 00-.44-.205 4.27 4.27 0 00-.322-.147c-.078-.058-.117-.127-.117-.205 0-1.21.264-2.46.79-3.75.548-1.29 1.27-2.46 2.169-3.516a11.988 11.988 0 013.164-2.636 7.69 7.69 0 013.838-1.026c1.093 0 2.04.166 2.842.498.8.332 1.484.762 2.05 1.29a6.927 6.927 0 011.377 1.757 9.05 9.05 0 01.85 1.963c.215.645.361 1.26.44 1.846.097.566.156 1.035.175 1.406zm-5.303 5.215a19 19 0 00-1.933.85 19.04 19.04 0 00-2.139 1.26 19.791 19.791 0 00-2.168 1.64 16.988 16.988 0 00-2.021 2.08c-.742.879-1.28 1.66-1.612 2.344-.332.683-.537 1.27-.615 1.758-.078.468-.058.84.059 1.113.117.273.254.44.41.498a2.93 2.93 0 001.875.088c.664-.196 1.318-.528 1.963-.996a13.024 13.024 0 001.904-1.729 34.203 34.203 0 001.758-2.08 29.69 29.69 0 001.465-2.11 39.47 39.47 0 001.054-1.816v-2.9zm25.4-7.12c-.35 0-.849.03-1.493.089a71.6 71.6 0 00-2.168.234c-.782.078-1.602.186-2.461.322-.84.117-1.64.244-2.403.381a927.718 927.718 0 00-.117 3.34c-.02 1.172-.049 2.354-.088 3.545-.02 1.191-.049 2.353-.088 3.486-.02 1.114-.039 2.149-.058 3.106a122.4 122.4 0 00-.03 2.52c0 .702.01 1.23.03 1.581.039.86.02 1.446-.059 1.758-.078.313-.185.488-.322.527-.137.059-.283.03-.44-.088a1.826 1.826 0 00-.38-.234c-.098-.02-.176.03-.235.147a9.378 9.378 0 00-.117.38 2.006 2.006 0 01-.146.41c-.059.137-.157.186-.293.147-.235-.059-.528-.234-.88-.527a3.107 3.107 0 01-.849-1.026 2.706 2.706 0 01-.264-.732 9.015 9.015 0 00-.234-.82 10.025 10.025 0 01-.117-.85c-.02-.371-.04-.81-.059-1.318a238.31 238.31 0 01-.058-1.7V30.8a3450.772 3450.772 0 01.117-5.596c.02-.86.039-1.63.059-2.314-.391.097-.86.224-1.407.38-.527.137-1.152.313-1.875.528-.273.098-.468.078-.586-.059-.117-.136-.088-.4.088-.79.059-.098.05-.177-.03-.235a1.024 1.024 0 00-.292-.147l-.293-.175a.288.288 0 01-.146-.264c0-.117.019-.254.058-.41.02-.157.078-.264.176-.323.215-.117.654-.36 1.318-.732.664-.39 1.64-.781 2.93-1.172-.02-2.305.117-4.355.41-6.152.293-1.797.684-3.37 1.172-4.717.508-1.367 1.094-2.53 1.758-3.486.683-.957 1.387-1.748 2.11-2.373.741-.625 1.483-1.104 2.226-1.436a9.456 9.456 0 012.168-.674c.937-.175 1.767-.088 2.49.264a4.94 4.94 0 011.846 1.494 6.763 6.763 0 011.113 2.139c.254.781.38 1.533.38 2.256 0 .879-.048 1.66-.146 2.343a14.15 14.15 0 01-.351 1.729c-.117.469-.254.86-.41 1.172a4.329 4.329 0 01-.352.644 3.96 3.96 0 01-.527.791c-.157.196-.283.235-.381.117a1.037 1.037 0 00-.381-.205l-.41-.175a1.116 1.116 0 01-.293-.205c-.078-.079-.117-.206-.117-.381 0-.078-.04-.127-.118-.147a2.867 2.867 0 00-.205-.058 1.16 1.16 0 01-.175-.147c-.059-.058-.069-.156-.03-.293.235-1.133.352-2.236.352-3.31 0-.88-.088-1.68-.264-2.403-.156-.742-.4-1.367-.732-1.875-.313-.527-.713-.898-1.201-1.113-.47-.234-1.016-.273-1.641-.117-.43.097-.85.498-1.26 1.201-.39.703-.752 1.7-1.084 2.988-.312 1.29-.576 2.862-.79 4.717-.216 1.836-.352 3.945-.411 6.328 1.621-.312 3.603-.556 5.947-.732.235-.02.42 0 .557.058.137.04.264.108.38.205.118.098.235.225.352.381.137.157.303.342.498.557.196.215.391.45.586.703.196.235.342.46.44.674.098.195.127.361.088.498-.02.137-.147.195-.381.176zm20.362 8.38c0 .215.01.468.03.761.019.293.029.625.029.996 0 .47-.069 1.055-.205 1.758a11.88 11.88 0 01-.674 2.168 11.702 11.702 0 01-1.201 2.285 9.296 9.296 0 01-1.875 2.051c-.742.606-1.621 1.094-2.637 1.465-.996.39-2.139.586-3.428.586-1.152 0-2.334-.225-3.545-.674-1.191-.43-2.285-1.103-3.281-2.021-.976-.938-1.787-2.12-2.432-3.545-.625-1.446-.937-3.164-.937-5.157 0-1.25.156-2.48.469-3.69a19.397 19.397 0 011.289-3.429 17.04 17.04 0 011.904-2.959 15.443 15.443 0 012.315-2.343c.82-.665 1.66-1.182 2.519-1.553.879-.371 1.728-.557 2.549-.557 1.426 0 2.598.225 3.516.674.937.45 1.68 1.006 2.226 1.67a5.843 5.843 0 011.143 2.139c.234.742.351 1.416.351 2.021 0 .586-.146 1.26-.44 2.022-.273.742-.732 1.455-1.376 2.138-.645.664-1.485 1.23-2.52 1.7-1.035.449-2.304.673-3.808.673-.801 0-1.524-.107-2.168-.322a7.876 7.876 0 01-1.67-.85 7.88 7.88 0 01-1.26-1.113 15.49 15.49 0 01-.85-1.142c-.351 1.21-.527 2.627-.527 4.248 0 1.113.156 2.119.469 3.017.332.88.781 1.631 1.347 2.256a5.709 5.709 0 002.022 1.436c.781.332 1.64.498 2.578.498 1.172 0 2.197-.196 3.076-.586a8.645 8.645 0 002.285-1.524 10.7 10.7 0 001.7-1.963c.488-.722.908-1.377 1.26-1.963.35-.605.654-1.103.907-1.494.274-.39.538-.576.792-.556.117 0 .175.097.175.293a1.54 1.54 0 01-.117.586zm-8.818-10.899c-.352 0-.81.078-1.377.235-.547.136-1.133.39-1.758.761-.605.371-1.21.88-1.816 1.524-.606.625-1.133 1.425-1.582 2.402l.703-.351c.215-.098.361-.147.44-.147.038 0 .097.04.175.117.45.762 1.006 1.309 1.67 1.64.684.313 1.445.47 2.285.47.664 0 1.23-.108 1.7-.323a3.753 3.753 0 001.2-.879c.313-.351.538-.732.674-1.142.137-.43.205-.85.205-1.26 0-.879-.224-1.601-.673-2.168-.45-.586-1.065-.879-1.846-.879zM83.62 29.307c0 .215.01.468.03.761.019.293.029.625.029.996 0 .47-.069 1.055-.205 1.758a11.879 11.879 0 01-.674 2.168 11.708 11.708 0 01-1.201 2.285 9.296 9.296 0 01-1.875 2.051c-.743.606-1.621 1.094-2.637 1.465-.996.39-2.139.586-3.428.586-1.152 0-2.334-.225-3.545-.674-1.191-.43-2.285-1.103-3.281-2.021-.977-.938-1.787-2.12-2.432-3.545-.625-1.446-.937-3.164-.937-5.157 0-1.25.156-2.48.469-3.69a19.39 19.39 0 011.289-3.429 17.028 17.028 0 011.904-2.959 15.485 15.485 0 012.314-2.343c.82-.665 1.66-1.182 2.52-1.553.879-.371 1.728-.557 2.549-.557 1.425 0 2.597.225 3.515.674.938.45 1.68 1.006 2.227 1.67a5.844 5.844 0 011.142 2.139c.235.742.352 1.416.352 2.021 0 .586-.146 1.26-.44 2.022-.273.742-.732 1.455-1.376 2.138-.645.664-1.485 1.23-2.52 1.7-1.035.449-2.304.673-3.808.673-.801 0-1.524-.107-2.168-.322a7.875 7.875 0 01-1.67-.85 7.881 7.881 0 01-1.26-1.113c-.332-.41-.615-.79-.85-1.142-.351 1.21-.527 2.627-.527 4.248 0 1.113.156 2.119.469 3.017.332.88.781 1.631 1.347 2.256a5.708 5.708 0 002.022 1.436c.781.332 1.64.498 2.578.498 1.172 0 2.197-.196 3.076-.586a8.643 8.643 0 002.285-1.524 10.7 10.7 0 001.7-1.963c.488-.722.908-1.377 1.26-1.963.35-.605.654-1.103.907-1.494.274-.39.538-.576.791-.556.118 0 .176.097.176.293a1.54 1.54 0 01-.117.586zm-8.818-10.899c-.352 0-.81.078-1.377.235-.547.136-1.133.39-1.758.761-.606.371-1.211.88-1.816 1.524-.606.625-1.133 1.425-1.583 2.402l.704-.351c.215-.098.361-.147.44-.147.038 0 .097.04.175.117.45.762 1.006 1.309 1.67 1.64.683.313 1.445.47 2.285.47.664 0 1.23-.108 1.7-.323a3.753 3.753 0 001.2-.879c.313-.351.538-.732.674-1.142.137-.43.205-.85.205-1.26 0-.879-.224-1.601-.674-2.168-.449-.586-1.064-.879-1.845-.879zm41.748 19.6c.058.156.097.283.117.38a.785.785 0 01.059.294c0 .175-.079.283-.235.322a4.31 4.31 0 00-.439.088c-.039.02-.078.117-.117.293a4.33 4.33 0 01-.176.527 1.253 1.253 0 01-.322.528c-.137.156-.333.234-.586.234-.821-.059-1.465-.244-1.934-.557a2.714 2.714 0 01-1.055-1.23c-.234-.528-.381-1.153-.439-1.875a31.26 31.26 0 01-.088-2.461c0-1.055.039-2.158.117-3.31.098-1.153.205-2.276.322-3.37.118-1.094.215-2.119.293-3.076.098-.977.147-1.807.147-2.49 0-.996-.088-1.768-.264-2.315-.156-.547-.381-.82-.674-.82-.136 0-.488.41-1.054 1.23-.567.801-1.25 2.022-2.051 3.663-.781 1.64-1.631 3.7-2.549 6.181-.898 2.48-1.758 5.39-2.578 8.73a1.595 1.595 0 00-.059.44c0 .156-.009.303-.029.44a.522.522 0 01-.146.293c-.059.097-.157.146-.293.146-.274 0-.489-.059-.645-.176a2.305 2.305 0 01-.41-.322 6.467 6.467 0 00-.322-.352.473.473 0 00-.381-.175c-.059 0-.108.039-.147.117l-.146.293a1.38 1.38 0 01-.205.263.436.436 0 01-.323.118 1.39 1.39 0 01-.38-.059c-.137-.059-.274-.185-.41-.38-.137-.216-.255-.518-.352-.91-.078-.41-.117-.956-.117-1.64v-1.318c0-.274.029-.693.088-1.26.058-.586.117-1.26.175-2.021.079-.762.157-1.582.235-2.461.097-.899.175-1.807.234-2.725a66.85 66.85 0 00.176-2.695c.059-.88.088-1.68.088-2.402 0-2.207-.274-3.311-.82-3.311a.992.992 0 00-.47.146c-.175.098-.39.303-.644.616-.234.293-.517.722-.85 1.289-.312.547-.673 1.289-1.083 2.226-.391.918-.85 2.051-1.377 3.399a119.757 119.757 0 00-1.7 4.804c-.136.41-.293 1.016-.468 1.817a85.42 85.42 0 00-.791 4.688c-.079.683-.117 1.132-.117 1.347 0 .059-.108.156-.323.293-.195.117-.43.234-.703.351a6.227 6.227 0 01-.85.294c-.273.097-.488.146-.644.146-.332 0-.586-.098-.762-.293-.176-.176-.312-.508-.41-.996-.078-.508-.127-1.191-.146-2.05v-3.37c0-.352.01-1.045.029-2.08a192.913 192.913 0 01.469-7.793c.117-1.484.253-2.842.41-4.072.156-1.23.342-2.246.556-3.047.215-.801.46-1.201.733-1.201.137 0 .263.049.38.146.118.098.225.205.323.322.098.098.185.196.264.293.097.098.195.147.293.147.078 0 .156-.04.234-.117a.992.992 0 00.234-.264c.079-.117.147-.215.205-.293.079-.078.137-.117.176-.117.059 0 .147.098.264.293.117.195.225.43.322.703.117.254.215.527.293.82.098.274.147.488.147.645 0 .39-.04.947-.118 1.67a81.618 81.618 0 01-.234 2.402c-.078.86-.156 1.738-.234 2.637a38.457 38.457 0 00-.088 2.49v.117c.254-.84.547-1.7.879-2.578.351-.898.732-1.768 1.142-2.607.41-.86.84-1.67 1.29-2.432.468-.762.956-1.426 1.464-1.992.508-.567 1.026-1.016 1.553-1.348.527-.332 1.064-.498 1.611-.498.664 0 1.231.117 1.699.352.489.215.879.527 1.172.937.293.39.508.85.645 1.377a6.28 6.28 0 01.205 1.64c0 .509-.039 1.095-.117 1.759a361.34 361.34 0 01-.205 2.226c-.078.8-.157 1.69-.235 2.666a73.543 73.543 0 00-.117 3.135l.908-2.52c.371-.996.772-2.021 1.201-3.076.45-1.055.918-2.1 1.407-3.135a32.48 32.48 0 011.523-2.783c.508-.82 1.016-1.484 1.524-1.992.527-.508 1.025-.762 1.494-.762.136 0 .439.05.908.147.488.078.996.205 1.523.38a7.542 7.542 0 011.524.616c.469.234.781.508.937.82.157.332.293.801.41 1.406.137.586.206 1.377.206 2.373 0 .88-.069 1.934-.206 3.165-.117 1.21-.332 2.675-.644 4.394a16.972 16.972 0 00-.205 1.64c-.02.528-.029 1.046-.029 1.553 0 .743.029 1.436.087 2.08.079.645.166 1.221.264 1.729s.195.947.293 1.318c.098.352.186.596.264.733zm25.224-10.371c0 2.05-.302 3.896-.908 5.537-.586 1.64-1.396 3.037-2.431 4.19a10.687 10.687 0 01-3.545 2.665 10.05 10.05 0 01-4.278.938 9.969 9.969 0 01-2.051-.235 9.785 9.785 0 01-2.226-.703 10.56 10.56 0 01-2.168-1.318 8.877 8.877 0 01-1.875-2.021c-.547-.801-.986-1.739-1.318-2.813-.313-1.074-.459-2.315-.44-3.72 0-1.602.195-3.057.586-4.366.391-1.328.889-2.51 1.494-3.545.625-1.055 1.328-1.963 2.11-2.724a15.435 15.435 0 012.343-1.905c.782-.527 1.534-.918 2.256-1.172.723-.254 1.348-.4 1.875-.44.274-.019.391.01.352.089-.02.078-.088.166-.205.263a4.965 4.965 0 00-.323.293c-.078.098-.039.157.118.176.136.04.244.078.322.117.098.04.195.088.293.147l.234-.264a.67.67 0 01.381-.146c.137 0 .254.02.352.058.097.02.175.03.234.03.059 0 .098-.059.117-.176.039-.215.108-.332.205-.352.117-.039.371-.058.762-.058.234 0 .586.068 1.055.205.488.136 1.015.37 1.582.703.586.332 1.172.781 1.758 1.348.605.546 1.152 1.25 1.64 2.109.508.84.918 1.846 1.231 3.017.312 1.172.468 2.53.468 4.073zm-10.576-8.584c-.683.41-1.357.966-2.021 1.67a13.846 13.846 0 00-1.817 2.431 14.146 14.146 0 00-1.289 3.076 12.645 12.645 0 00-.498 3.575c0 1.347.117 2.568.352 3.662.254 1.093.615 2.031 1.084 2.812.469.762 1.035 1.358 1.699 1.787.684.41 1.455.616 2.314.616.762 0 1.514-.215 2.256-.645.762-.43 1.436-1.074 2.022-1.934.586-.859 1.054-1.923 1.406-3.193.371-1.27.557-2.744.557-4.424 0-1.699-.225-3.125-.674-4.277-.449-1.152-.957-2.08-1.524-2.783-.546-.723-1.074-1.23-1.582-1.524-.507-.312-.82-.468-.937-.468h-.645c-.136 0-.371-.127-.703-.381zM164.1 39.824c0 .176-.147.39-.44.645-.293.254-.664.38-1.113.38-.137 0-.391-.068-.762-.204a5.35 5.35 0 01-1.113-.616 4.788 4.788 0 01-1.055-.937 2.21 2.21 0 01-.498-1.319 5.175 5.175 0 01-.058-.879V32.94c0-.958.019-1.924.058-2.9a38.781 38.781 0 01-.498 2.196 19.685 19.685 0 01-.732 2.227 20.216 20.216 0 01-1.026 2.197c-.39.723-.84 1.416-1.347 2.08a5.604 5.604 0 01-.879.908c-.293.235-.586.43-.879.586a3.795 3.795 0 01-.82.381c-.254.078-.45.117-.586.117-.079 0-.264-.087-.557-.263a20.517 20.517 0 01-.996-.616 273.18 273.18 0 00-1.201-.878c-.43-.332-.84-.655-1.231-.967-.39-.332-.742-.635-1.055-.908a6.685 6.685 0 01-.673-.703c-.137-.196-.264-.528-.381-.997a19.376 19.376 0 01-.264-1.728 52.103 52.103 0 01-.205-2.315 60.888 60.888 0 01-.059-2.753c0-.528.01-1.211.03-2.051.019-.84.058-1.739.117-2.696.059-.976.127-1.953.205-2.93a53.76 53.76 0 01.322-2.665c.137-.801.293-1.446.469-1.934.176-.508.381-.762.615-.762.157 0 .43.05.821.147.39.078.791.117 1.201.117.605 0 1.025-.049 1.26-.146.253-.118.439-.176.556-.176.195 0 .293.166.293.498v.293a.962.962 0 01-.058.293c-.02.117-.069.42-.147.908a305.43 305.43 0 01-.234 1.875 97.07 97.07 0 00-.293 2.578c-.098.938-.196 1.924-.293 2.96-.078 1.034-.147 2.08-.205 3.134a54.1 54.1 0 00-.088 3.017c0 .645.01 1.29.029 1.934.039.645.098 1.23.176 1.758.078.527.185.957.322 1.289.137.312.303.469.498.469.176 0 .42-.079.733-.235.332-.176.712-.517 1.142-1.025.449-.508.938-1.23 1.465-2.168.527-.938 1.094-2.178 1.699-3.72.625-1.563 1.27-3.468 1.934-5.714.683-2.265 1.377-4.96 2.08-8.086 0-.058.029-.097.088-.117a.581.581 0 01.263-.058c.254 0 .577.029.967.088.391.039.762.107 1.114.205.371.078.683.175.937.293.273.117.41.244.41.38a38.4 38.4 0 01-.117 2.872 256.757 256.757 0 01-.264 3.222 161.944 161.944 0 00-.263 3.37 50.751 50.751 0 00-.118 3.427c0 2.031.059 3.975.176 5.83.137 1.836.313 3.418.528 4.746zm19.365-20.888c-.02.566-.078 1.132-.176 1.699a10.362 10.362 0 01-.351 1.582 6.323 6.323 0 01-.586 1.318c-.215.39-.459.703-.733.938-.234.195-.42.293-.557.293a.545.545 0 01-.351-.118 1.344 1.344 0 01-.205-.263.35.35 0 00-.235-.176.653.653 0 00-.322.03 1.279 1.279 0 01-.381 0 .664.664 0 01-.351-.206c-.098-.137-.166-.37-.205-.703-.039-.371-.03-.85.029-1.435a13.76 13.76 0 00.117-1.758c0-.508-.058-.928-.176-1.26-.097-.352-.283-.527-.556-.527-.137 0-.381.107-.733.322-.332.195-.703.625-1.113 1.289-.41.664-.82 1.63-1.23 2.9-.411 1.25-.743 2.92-.996 5.01 0 2.695.019 4.863.058 6.504.039 1.64.059 2.92.059 3.838 0 .781-.02 1.338-.059 1.67-.039.332-.137.547-.293.644-.098.059-.293.127-.586.205a8.44 8.44 0 01-.908.264 19.76 19.76 0 01-.908.205c-.293.059-.479.078-.557.059a1.529 1.529 0 01-.322-.205 3.802 3.802 0 01-.498-.381 5.414 5.414 0 01-.44-.498c-.136-.157-.214-.293-.234-.41-.039-.196-.059-.635-.059-1.319.02-.703.03-1.543.03-2.52.019-.976.039-2.04.058-3.193.02-1.172.03-2.334.03-3.486 0-.742.019-1.563.058-2.46l.176-2.784c.078-.938.156-1.856.234-2.754.078-.898.147-1.7.205-2.402.079-.723.137-1.319.176-1.787.059-.489.098-.782.117-.88.02-.156.088-.214.205-.175.137.039.274.107.411.205.156.098.293.186.41.264.117.078.195.078.234 0 .039-.176.186-.196.44-.059.254.117.488.254.703.41.078.098.166.186.263.264a.99.99 0 01.323.264c.097.097.175.234.234.41.078.175.117.41.117.703 0 .273.02.683.059 1.23.039.547.088 1.192.146 1.934.215-.703.469-1.445.762-2.227.313-.781.684-1.494 1.113-2.138a6.16 6.16 0 011.524-1.641c.586-.43 1.289-.645 2.109-.645.449 0 .899.088 1.348.264.449.176.849.44 1.201.791.371.332.664.742.879 1.23.215.489.312 1.046.293 1.67z" fill="#fff"/></svg>