<svg width="184" height="43" viewBox="0 0 184 43" fill="none" xmlns="http://www.w3.org/2000/svg">
<path d="M20.0762 22.832C20.0957 23.5156 20.0371 24.3555 19.9004 25.3516C19.7637 26.3281 19.6074 27.3828 19.4316 28.5156C19.2559 29.6289 19.0898 30.7715 18.9336 31.9434C18.7773 33.1152 18.6992 34.2188 18.6992 35.2539C18.6992 35.9375 18.748 36.5918 18.8457 37.2168C18.9434 37.8223 19.1094 38.3496 19.3438 38.7988C19.4805 39.0527 19.5488 39.2773 19.5488 39.4727C19.5684 39.668 19.5586 39.8438 19.5195 40C19.4805 40.1367 19.4414 40.2539 19.4023 40.3516C19.3633 40.4688 19.3633 40.5762 19.4023 40.6738C19.4414 40.7715 19.4316 40.8789 19.373 40.9961C19.3145 41.1328 19.2266 41.25 19.1094 41.3477C18.9922 41.4648 18.8555 41.543 18.6992 41.582C18.5625 41.6406 18.4355 41.6309 18.3184 41.5527C18.1035 41.416 17.9277 41.3379 17.791 41.3184C17.6738 41.2988 17.5664 41.2988 17.4688 41.3184C17.3906 41.3574 17.3125 41.3965 17.2344 41.4355C17.1758 41.4746 17.0977 41.4746 17 41.4355C16.668 41.2598 16.3066 41.0547 15.916 40.8203C15.5254 40.5859 15.2715 40.332 15.1543 40.0586C15.0762 39.9414 14.998 39.7461 14.9199 39.4727C14.8613 39.1992 14.8027 38.877 14.7441 38.5059C14.7051 38.1348 14.666 37.7344 14.627 37.3047C14.5879 36.875 14.5586 36.4551 14.5391 36.0449C13.8945 37.2559 13.2012 38.2617 12.459 39.0625C11.7363 39.8633 11.0039 40.498 10.2617 40.9668C9.53906 41.4551 8.81641 41.7969 8.09375 41.9922C7.39062 42.1875 6.74609 42.2852 6.16016 42.2852C5.55469 42.2852 5.01758 42.207 4.54883 42.0508C4.09961 41.8945 3.74805 41.709 3.49414 41.4941C2.53711 40.5371 1.85352 39.7656 1.44336 39.1797C1.05273 38.5742 0.876953 38.0859 0.916016 37.7148C1.01367 36.4648 1.31641 35.3125 1.82422 34.2578C2.33203 33.2031 2.9668 32.2363 3.72852 31.3574C4.49023 30.459 5.33984 29.6582 6.27734 28.9551C7.23438 28.2324 8.20117 27.5977 9.17773 27.0508C10.1738 26.4844 11.1504 26.0156 12.1074 25.6445C13.0645 25.2539 13.9336 24.9414 14.7148 24.707C14.6758 23.6523 14.627 22.7344 14.5684 21.9531C14.5293 21.1523 14.4609 20.5664 14.3633 20.1953C14.0703 18.9844 13.6211 18.0859 13.0156 17.5C12.4102 16.8945 11.6777 16.5918 10.8184 16.5918C10.2715 16.5918 9.71484 16.7969 9.14844 17.207C8.60156 17.6172 8.10352 18.1738 7.6543 18.877C7.20508 19.5801 6.83398 20.3906 6.54102 21.3086C6.26758 22.2266 6.12109 23.1934 6.10156 24.209C6.10156 24.4629 6.11133 24.707 6.13086 24.9414C6.15039 25.1758 6.17969 25.4199 6.21875 25.6738C6.23828 25.8105 6.18945 25.9082 6.07227 25.9668C5.97461 26.0254 5.84766 26.0742 5.69141 26.1133C5.53516 26.1328 5.36914 26.1523 5.19336 26.1719C5.01758 26.1914 4.87109 26.2207 4.75391 26.2598C4.65625 26.2988 4.57812 26.3281 4.51953 26.3477C4.46094 26.3477 4.40234 26.3379 4.34375 26.3184C4.28516 26.2793 4.20703 26.2207 4.10938 26.1426C4.03125 26.0645 3.91406 25.9668 3.75781 25.8496C3.60156 25.7324 3.43555 25.6348 3.25977 25.5566C3.10352 25.4785 2.95703 25.4102 2.82031 25.3516C2.70312 25.293 2.5957 25.2441 2.49805 25.2051C2.41992 25.1465 2.38086 25.0781 2.38086 25C2.38086 23.7891 2.64453 22.5391 3.17188 21.25C3.71875 19.9609 4.44141 18.7891 5.33984 17.7344C6.25781 16.6602 7.3125 15.7812 8.50391 15.0977C9.71484 14.4141 10.9941 14.0723 12.3418 14.0723C13.4355 14.0723 14.3828 14.2383 15.1836 14.5703C15.9844 14.9023 16.668 15.332 17.2344 15.8594C17.8008 16.3867 18.2598 16.9727 18.6113 17.6172C18.9824 18.2617 19.2656 18.916 19.4609 19.5801C19.6758 20.2246 19.8223 20.8398 19.9004 21.4258C19.998 21.9922 20.0566 22.4609 20.0762 22.832ZM14.7734 28.0469C14.1875 28.2617 13.543 28.5449 12.8398 28.8965C12.1367 29.248 11.4238 29.668 10.7012 30.1562C9.97852 30.625 9.25586 31.1719 8.5332 31.7969C7.81055 32.4219 7.13672 33.1152 6.51172 33.877C5.76953 34.7559 5.23242 35.5371 4.90039 36.2207C4.56836 36.9043 4.36328 37.4902 4.28516 37.9785C4.20703 38.4473 4.22656 38.8184 4.34375 39.0918C4.46094 39.3652 4.59766 39.5312 4.75391 39.5898C5.35938 39.8242 5.98438 39.8535 6.62891 39.6777C7.29297 39.4824 7.94727 39.1504 8.5918 38.6816C9.25586 38.1934 9.89062 37.6172 10.4961 36.9531C11.1211 36.2695 11.707 35.5762 12.2539 34.873C12.8008 34.1504 13.2891 33.4473 13.7188 32.7637C14.1484 32.0605 14.5 31.4551 14.7734 30.9473V28.0469ZM40.1738 20.9277C39.8223 20.9277 39.3242 20.957 38.6797 21.0156C38.0352 21.0742 37.3125 21.1523 36.5117 21.25C35.7305 21.3281 34.9102 21.4355 34.0508 21.5723C33.2109 21.6895 32.4102 21.8164 31.6484 21.9531C31.6094 23.0078 31.5703 24.1211 31.5312 25.293C31.5117 26.4648 31.4824 27.6465 31.4434 28.8379C31.4238 30.0293 31.3945 31.1914 31.3555 32.3242C31.3359 33.4375 31.3164 34.4727 31.2969 35.4297C31.2773 36.3867 31.2676 37.2266 31.2676 37.9492C31.2676 38.6523 31.2773 39.1797 31.2969 39.5312C31.3359 40.3906 31.3164 40.9766 31.2383 41.2891C31.1602 41.6016 31.0527 41.7773 30.916 41.8164C30.7793 41.875 30.6328 41.8457 30.4766 41.7285C30.3203 41.6113 30.1934 41.5332 30.0957 41.4941C29.998 41.4746 29.9199 41.5234 29.8613 41.6406C29.8223 41.7578 29.7832 41.8848 29.7441 42.0215C29.7051 42.1777 29.6562 42.3145 29.5977 42.4316C29.5391 42.5684 29.4414 42.6172 29.3047 42.5781C29.0703 42.5195 28.7773 42.3438 28.4258 42.0508C28.0742 41.7773 27.791 41.4355 27.5762 41.0254C27.459 40.8105 27.3711 40.5664 27.3125 40.293C27.2539 40.0391 27.1758 39.7656 27.0781 39.4727C27.0391 39.2773 27 38.9941 26.9609 38.623C26.9414 38.252 26.9219 37.8125 26.9023 37.3047C26.8828 36.7969 26.8633 36.2305 26.8438 35.6055C26.8438 34.9805 26.8438 34.3262 26.8438 33.6426C26.8438 32.7246 26.8438 31.7773 26.8438 30.8008C26.8633 29.8242 26.8828 28.8672 26.9023 27.9297C26.9219 26.9727 26.9414 26.0645 26.9609 25.2051C26.9805 24.3457 27 23.5742 27.0195 22.8906C26.6289 22.9883 26.1602 23.1152 25.6133 23.2715C25.0859 23.4082 24.4609 23.584 23.7383 23.7988C23.4648 23.8965 23.2695 23.877 23.1523 23.7402C23.0352 23.6035 23.0645 23.3398 23.2402 22.9492C23.2988 22.8516 23.2891 22.7734 23.2109 22.7148C23.1328 22.6562 23.0352 22.6074 22.918 22.5684C22.8203 22.5098 22.7227 22.4512 22.625 22.3926C22.5273 22.334 22.4785 22.2461 22.4785 22.1289C22.4785 22.0117 22.498 21.875 22.5371 21.7188C22.5566 21.5625 22.6152 21.4551 22.7129 21.3965C22.9277 21.2793 23.3672 21.0352 24.0312 20.6641C24.6953 20.2734 25.6719 19.8828 26.9609 19.4922C26.9414 17.1875 27.0781 15.1367 27.3711 13.3398C27.6641 11.543 28.0547 9.9707 28.543 8.62305C29.0508 7.25586 29.6367 6.09375 30.3008 5.13672C30.9844 4.17969 31.6875 3.38867 32.4102 2.76367C33.1523 2.13867 33.8945 1.66016 34.6367 1.32812C35.3984 0.996094 36.1211 0.771484 36.8047 0.654297C37.7422 0.478516 38.5723 0.566406 39.2949 0.917969C40.0371 1.26953 40.6523 1.76758 41.1406 2.41211C41.6289 3.03711 42 3.75 42.2539 4.55078C42.5078 5.33203 42.6348 6.08398 42.6348 6.80664C42.6348 7.68555 42.5859 8.4668 42.4883 9.15039C42.3906 9.81445 42.2734 10.3906 42.1367 10.8789C42.0195 11.3477 41.8828 11.7383 41.7266 12.0508C41.5898 12.3438 41.4727 12.5586 41.375 12.6953C41.1992 13.0273 41.0234 13.291 40.8477 13.4863C40.6914 13.6816 40.5645 13.7207 40.4668 13.6035C40.3496 13.5059 40.2227 13.4375 40.0859 13.3984C39.9492 13.3398 39.8125 13.2812 39.6758 13.2227C39.5586 13.1641 39.4609 13.0957 39.3828 13.0176C39.3047 12.9395 39.2656 12.8125 39.2656 12.6367C39.2656 12.5586 39.2266 12.5098 39.1484 12.4902C39.0898 12.4707 39.0215 12.4512 38.9434 12.4316C38.8848 12.3926 38.8262 12.3438 38.7676 12.2852C38.709 12.2266 38.6992 12.1289 38.7383 11.9922C38.9727 10.8594 39.0898 9.75586 39.0898 8.68164C39.0898 7.80273 39.002 7.00195 38.8262 6.2793C38.6699 5.53711 38.4258 4.91211 38.0938 4.4043C37.7812 3.87695 37.3809 3.50586 36.8926 3.29102C36.4238 3.05664 35.877 3.01758 35.252 3.17383C34.8223 3.27148 34.4023 3.67188 33.9922 4.375C33.6016 5.07812 33.2402 6.07422 32.9082 7.36328C32.5957 8.65234 32.332 10.2246 32.1172 12.0801C31.9023 13.916 31.7656 16.0254 31.707 18.4082C33.3281 18.0957 35.3105 17.8516 37.6543 17.6758C37.8887 17.6562 38.0742 17.6758 38.2109 17.7344C38.3477 17.7734 38.4746 17.8418 38.5918 17.9395C38.709 18.0371 38.8262 18.1641 38.9434 18.3203C39.0801 18.4766 39.2461 18.6621 39.4414 18.877C39.6367 19.0918 39.832 19.3262 40.0273 19.5801C40.2227 19.8145 40.3691 20.0391 40.4668 20.2539C40.5645 20.4492 40.5938 20.6152 40.5547 20.752C40.5352 20.8887 40.4082 20.9473 40.1738 20.9277ZM60.5352 29.3066C60.5352 29.5215 60.5449 29.7754 60.5645 30.0684C60.584 30.3613 60.5938 30.6934 60.5938 31.0645C60.5938 31.5332 60.5254 32.1191 60.3887 32.8223C60.252 33.5059 60.0273 34.2285 59.7148 34.9902C59.4219 35.752 59.0215 36.5137 58.5137 37.2754C58.0059 38.0371 57.3809 38.7207 56.6387 39.3262C55.8965 39.9316 55.0176 40.4199 54.002 40.791C53.0059 41.1816 51.8633 41.377 50.5742 41.377C49.4219 41.377 48.2402 41.1523 47.0293 40.7031C45.8379 40.2734 44.7441 39.5996 43.748 38.6816C42.7715 37.7441 41.9609 36.5625 41.3164 35.1367C40.6914 33.6914 40.3789 31.9727 40.3789 29.9805C40.3789 28.7305 40.5352 27.5 40.8477 26.2891C41.1797 25.0781 41.6094 23.9355 42.1367 22.8613C42.6836 21.7871 43.3184 20.8008 44.041 19.9023C44.7832 18.9844 45.5547 18.2031 46.3555 17.5586C47.1758 16.8945 48.0156 16.377 48.875 16.0059C49.7539 15.6348 50.6035 15.4492 51.4238 15.4492C52.8496 15.4492 54.0215 15.6738 54.9395 16.123C55.877 16.5723 56.6191 17.1289 57.166 17.793C57.7129 18.457 58.0938 19.1699 58.3086 19.9316C58.543 20.6738 58.6602 21.3477 58.6602 21.9531C58.6602 22.5391 58.5137 23.2129 58.2207 23.9746C57.9473 24.7168 57.4883 25.4297 56.8438 26.1133C56.1992 26.7773 55.3594 27.3438 54.3242 27.8125C53.2891 28.2617 52.0195 28.4863 50.5156 28.4863C49.7148 28.4863 48.9922 28.3789 48.3477 28.1641C47.7227 27.9297 47.166 27.6465 46.6777 27.3145C46.1895 26.9629 45.7695 26.5918 45.418 26.2012C45.0859 25.791 44.8027 25.4102 44.5684 25.0586C44.2168 26.2695 44.041 27.6855 44.041 29.3066C44.041 30.4199 44.1973 31.4258 44.5098 32.3242C44.8418 33.2031 45.291 33.9551 45.8574 34.5801C46.4238 35.2051 47.0977 35.6836 47.8789 36.0156C48.6602 36.3477 49.5195 36.5137 50.457 36.5137C51.6289 36.5137 52.6543 36.3184 53.5332 35.9277C54.4121 35.5176 55.1738 35.0098 55.8184 34.4043C56.4824 33.7988 57.0488 33.1445 57.5176 32.4414C58.0059 31.7188 58.4258 31.0645 58.7773 30.4785C59.1289 29.873 59.4316 29.375 59.6855 28.9844C59.959 28.5938 60.2227 28.4082 60.4766 28.4277C60.5938 28.4277 60.6523 28.5254 60.6523 28.7207C60.6523 28.8184 60.6426 28.916 60.623 29.0137C60.6035 29.1113 60.5742 29.209 60.5352 29.3066ZM51.7168 18.4082C51.3652 18.4082 50.9062 18.4863 50.3398 18.6426C49.793 18.7793 49.207 19.0332 48.582 19.4043C47.9766 19.7754 47.3711 20.2832 46.7656 20.9277C46.1602 21.5527 45.6328 22.3535 45.1836 23.3301C45.457 23.1934 45.6914 23.0762 45.8867 22.9785C46.1016 22.8809 46.248 22.832 46.3262 22.832C46.3652 22.832 46.4238 22.8711 46.502 22.9492C46.9512 23.7109 47.5078 24.2578 48.1719 24.5898C48.8555 24.9023 49.6172 25.0586 50.457 25.0586C51.1211 25.0586 51.6875 24.9512 52.1562 24.7363C52.6445 24.502 53.0449 24.209 53.3574 23.8574C53.6699 23.5059 53.8945 23.125 54.0312 22.7148C54.168 22.2852 54.2363 21.8652 54.2363 21.4551C54.2363 20.5762 54.0117 19.8535 53.5625 19.2871C53.1133 18.7012 52.498 18.4082 51.7168 18.4082ZM83.6211 29.3066C83.6211 29.5215 83.6309 29.7754 83.6504 30.0684C83.6699 30.3613 83.6797 30.6934 83.6797 31.0645C83.6797 31.5332 83.6113 32.1191 83.4746 32.8223C83.3379 33.5059 83.1133 34.2285 82.8008 34.9902C82.5078 35.752 82.1074 36.5137 81.5996 37.2754C81.0918 38.0371 80.4668 38.7207 79.7246 39.3262C78.9824 39.9316 78.1035 40.4199 77.0879 40.791C76.0918 41.1816 74.9492 41.377 73.6602 41.377C72.5078 41.377 71.3262 41.1523 70.1152 40.7031C68.9238 40.2734 67.8301 39.5996 66.834 38.6816C65.8574 37.7441 65.0469 36.5625 64.4023 35.1367C63.7773 33.6914 63.4648 31.9727 63.4648 29.9805C63.4648 28.7305 63.6211 27.5 63.9336 26.2891C64.2656 25.0781 64.6953 23.9355 65.2227 22.8613C65.7695 21.7871 66.4043 20.8008 67.127 19.9023C67.8691 18.9844 68.6406 18.2031 69.4414 17.5586C70.2617 16.8945 71.1016 16.377 71.9609 16.0059C72.8398 15.6348 73.6895 15.4492 74.5098 15.4492C75.9355 15.4492 77.1074 15.6738 78.0254 16.123C78.9629 16.5723 79.7051 17.1289 80.252 17.793C80.7988 18.457 81.1797 19.1699 81.3945 19.9316C81.6289 20.6738 81.7461 21.3477 81.7461 21.9531C81.7461 22.5391 81.5996 23.2129 81.3066 23.9746C81.0332 24.7168 80.5742 25.4297 79.9297 26.1133C79.2852 26.7773 78.4453 27.3438 77.4102 27.8125C76.375 28.2617 75.1055 28.4863 73.6016 28.4863C72.8008 28.4863 72.0781 28.3789 71.4336 28.1641C70.8086 27.9297 70.252 27.6465 69.7637 27.3145C69.2754 26.9629 68.8555 26.5918 68.5039 26.2012C68.1719 25.791 67.8887 25.4102 67.6543 25.0586C67.3027 26.2695 67.127 27.6855 67.127 29.3066C67.127 30.4199 67.2832 31.4258 67.5957 32.3242C67.9277 33.2031 68.377 33.9551 68.9434 34.5801C69.5098 35.2051 70.1836 35.6836 70.9648 36.0156C71.7461 36.3477 72.6055 36.5137 73.543 36.5137C74.7148 36.5137 75.7402 36.3184 76.6191 35.9277C77.498 35.5176 78.2598 35.0098 78.9043 34.4043C79.5684 33.7988 80.1348 33.1445 80.6035 32.4414C81.0918 31.7188 81.5117 31.0645 81.8633 30.4785C82.2148 29.873 82.5176 29.375 82.7715 28.9844C83.0449 28.5938 83.3086 28.4082 83.5625 28.4277C83.6797 28.4277 83.7383 28.5254 83.7383 28.7207C83.7383 28.8184 83.7285 28.916 83.709 29.0137C83.6895 29.1113 83.6602 29.209 83.6211 29.3066ZM74.8027 18.4082C74.4512 18.4082 73.9922 18.4863 73.4258 18.6426C72.8789 18.7793 72.293 19.0332 71.668 19.4043C71.0625 19.7754 70.457 20.2832 69.8516 20.9277C69.2461 21.5527 68.7188 22.3535 68.2695 23.3301C68.543 23.1934 68.7773 23.0762 68.9727 22.9785C69.1875 22.8809 69.334 22.832 69.4121 22.832C69.4512 22.832 69.5098 22.8711 69.5879 22.9492C70.0371 23.7109 70.5938 24.2578 71.2578 24.5898C71.9414 24.9023 72.7031 25.0586 73.543 25.0586C74.207 25.0586 74.7734 24.9512 75.2422 24.7363C75.7305 24.502 76.1309 24.209 76.4434 23.8574C76.7559 23.5059 76.9805 23.125 77.1172 22.7148C77.2539 22.2852 77.3223 21.8652 77.3223 21.4551C77.3223 20.5762 77.0977 19.8535 76.6484 19.2871C76.1992 18.7012 75.584 18.4082 74.8027 18.4082ZM116.551 38.0078C116.609 38.1641 116.648 38.291 116.668 38.3887C116.707 38.4863 116.727 38.584 116.727 38.6816C116.727 38.8574 116.648 38.9648 116.492 39.0039C116.355 39.0234 116.209 39.0527 116.053 39.0918C116.014 39.1113 115.975 39.209 115.936 39.3848C115.896 39.541 115.838 39.7168 115.76 39.9121C115.701 40.1074 115.594 40.2832 115.438 40.4395C115.301 40.5957 115.105 40.6738 114.852 40.6738C114.031 40.6152 113.387 40.4297 112.918 40.1172C112.449 39.8242 112.098 39.4141 111.863 38.8867C111.629 38.3594 111.482 37.7344 111.424 37.0117C111.365 36.2695 111.336 35.4492 111.336 34.5508C111.336 33.4961 111.375 32.3926 111.453 31.2402C111.551 30.0879 111.658 28.9648 111.775 27.8711C111.893 26.7773 111.99 25.752 112.068 24.7949C112.166 23.8184 112.215 22.9883 112.215 22.3047C112.215 21.3086 112.127 20.5371 111.951 19.9902C111.795 19.4434 111.57 19.1699 111.277 19.1699C111.141 19.1699 110.789 19.5801 110.223 20.4004C109.656 21.2012 108.973 22.4219 108.172 24.0625C107.391 25.7031 106.541 27.7637 105.623 30.2441C104.725 32.7246 103.865 35.6348 103.045 38.9746C103.006 39.1113 102.986 39.2578 102.986 39.4141C102.986 39.5703 102.977 39.7168 102.957 39.8535C102.938 39.9707 102.889 40.0684 102.811 40.1465C102.752 40.2441 102.654 40.293 102.518 40.293C102.244 40.293 102.029 40.2344 101.873 40.1172C101.717 40.0195 101.58 39.9121 101.463 39.7949C101.346 39.6582 101.238 39.541 101.141 39.4434C101.043 39.3262 100.916 39.2676 100.76 39.2676C100.701 39.2676 100.652 39.3066 100.613 39.3848C100.574 39.4629 100.525 39.5605 100.467 39.6777C100.408 39.7754 100.34 39.8633 100.262 39.9414C100.184 40.0195 100.076 40.0586 99.9395 40.0586C99.8223 40.0586 99.6953 40.0391 99.5586 40C99.4219 39.9414 99.2852 39.8145 99.1484 39.6191C99.0117 39.4043 98.8945 39.1016 98.7969 38.7109C98.7188 38.3008 98.6797 37.7539 98.6797 37.0703V35.752C98.6797 35.4785 98.709 35.0586 98.7676 34.4922C98.8262 33.9062 98.8848 33.2324 98.9434 32.4707C99.0215 31.709 99.0996 30.8887 99.1777 30.0098C99.2754 29.1113 99.3535 28.2031 99.4121 27.2852C99.4902 26.3672 99.5488 25.4688 99.5879 24.5898C99.6465 23.7109 99.6758 22.9102 99.6758 22.1875C99.6758 19.9805 99.4023 18.877 98.8555 18.877C98.7188 18.877 98.5625 18.9258 98.3867 19.0234C98.2109 19.1211 97.9961 19.3262 97.7422 19.6387C97.5078 19.9316 97.2246 20.3613 96.8926 20.9277C96.5801 21.4746 96.2188 22.2168 95.8086 23.1543C95.418 24.0723 94.959 25.2051 94.4316 26.5527C93.9238 27.8809 93.3574 29.4824 92.7324 31.3574C92.5957 31.7676 92.4395 32.373 92.2637 33.1738C92.1074 33.9551 91.9609 34.7559 91.8242 35.5762C91.6875 36.3965 91.5703 37.1582 91.4727 37.8613C91.3945 38.5449 91.3555 38.9941 91.3555 39.209C91.3555 39.2676 91.248 39.3652 91.0332 39.502C90.8379 39.6191 90.6035 39.7363 90.3301 39.8535C90.0566 39.9707 89.7734 40.0684 89.4805 40.1465C89.207 40.2441 88.9922 40.293 88.8359 40.293C88.5039 40.293 88.25 40.1953 88.0742 40C87.8984 39.8242 87.7617 39.4922 87.6641 39.0039C87.5859 38.4961 87.5371 37.8125 87.5176 36.9531C87.5176 36.0742 87.5176 34.9512 87.5176 33.584C87.5176 33.2324 87.5273 32.5391 87.5469 31.5039C87.5859 30.4688 87.6445 29.2773 87.7227 27.9297C87.8008 26.582 87.8984 25.1758 88.0156 23.7109C88.1328 22.2266 88.2695 20.8691 88.4258 19.6387C88.582 18.4082 88.7676 17.3926 88.9824 16.5918C89.1973 15.791 89.4414 15.3906 89.7148 15.3906C89.8516 15.3906 89.9785 15.4395 90.0957 15.5371C90.2129 15.6348 90.3203 15.7422 90.418 15.8594C90.5156 15.957 90.6035 16.0547 90.6816 16.1523C90.7793 16.25 90.877 16.2988 90.9746 16.2988C91.0527 16.2988 91.1309 16.2598 91.209 16.1816C91.3066 16.1035 91.3848 16.0156 91.4434 15.918C91.5215 15.8008 91.5898 15.7031 91.6484 15.625C91.7266 15.5469 91.7852 15.5078 91.8242 15.5078C91.8828 15.5078 91.9707 15.6055 92.0879 15.8008C92.2051 15.9961 92.3125 16.2305 92.4102 16.5039C92.5273 16.7578 92.625 17.0312 92.7031 17.3242C92.8008 17.5977 92.8496 17.8125 92.8496 17.9688C92.8496 18.3594 92.8105 18.916 92.7324 19.6387C92.6738 20.3613 92.5957 21.1621 92.498 22.041C92.4199 22.9004 92.3418 23.7793 92.2637 24.6777C92.2051 25.5762 92.1758 26.4062 92.1758 27.168V27.2852C92.4297 26.4453 92.7227 25.5859 93.0547 24.707C93.4062 23.8086 93.7871 22.9395 94.1973 22.0996C94.6074 21.2402 95.0371 20.4297 95.4863 19.668C95.9551 18.9062 96.4434 18.2422 96.9512 17.6758C97.459 17.1094 97.9766 16.6602 98.5039 16.3281C99.0312 15.9961 99.5684 15.8301 100.115 15.8301C100.779 15.8301 101.346 15.9473 101.814 16.1816C102.303 16.3965 102.693 16.709 102.986 17.1191C103.279 17.5098 103.494 17.9688 103.631 18.4961C103.768 19.0039 103.836 19.5508 103.836 20.1367C103.836 20.6445 103.797 21.2305 103.719 21.8945C103.66 22.5586 103.592 23.3008 103.514 24.1211C103.436 24.9219 103.357 25.8105 103.279 26.7871C103.221 27.7441 103.182 28.7891 103.162 29.9219C103.416 29.2188 103.719 28.3789 104.07 27.4023C104.441 26.4062 104.842 25.3809 105.271 24.3262C105.721 23.2715 106.189 22.2266 106.678 21.1914C107.186 20.1562 107.693 19.2285 108.201 18.4082C108.709 17.5879 109.217 16.9238 109.725 16.416C110.252 15.9082 110.75 15.6543 111.219 15.6543C111.355 15.6543 111.658 15.7031 112.127 15.8008C112.615 15.8789 113.123 16.0059 113.65 16.1816C114.197 16.3379 114.705 16.543 115.174 16.7969C115.643 17.0312 115.955 17.3047 116.111 17.6172C116.268 17.9492 116.404 18.418 116.521 19.0234C116.658 19.6094 116.727 20.4004 116.727 21.3965C116.727 22.2754 116.658 23.3301 116.521 24.5605C116.404 25.7715 116.189 27.2363 115.877 28.9551C115.779 29.5215 115.711 30.0684 115.672 30.5957C115.652 31.123 115.643 31.6406 115.643 32.1484C115.643 32.8906 115.672 33.584 115.73 34.2285C115.809 34.873 115.896 35.4492 115.994 35.957C116.092 36.4648 116.189 36.9043 116.287 37.2754C116.385 37.627 116.473 37.8711 116.551 38.0078ZM141.775 27.6367C141.775 29.6875 141.473 31.5332 140.867 33.1738C140.281 34.8145 139.471 36.2109 138.436 37.3633C137.42 38.5156 136.238 39.4043 134.891 40.0293C133.543 40.6543 132.117 40.9668 130.613 40.9668C129.988 40.9668 129.305 40.8887 128.562 40.7324C127.82 40.5957 127.078 40.3613 126.336 40.0293C125.594 39.6973 124.871 39.2578 124.168 38.7109C123.465 38.1641 122.84 37.4902 122.293 36.6895C121.746 35.8887 121.307 34.9512 120.975 33.877C120.662 32.8027 120.516 31.5625 120.535 30.1562C120.535 28.5547 120.73 27.0996 121.121 25.791C121.512 24.4629 122.01 23.2812 122.615 22.2461C123.24 21.1914 123.943 20.2832 124.725 19.5215C125.506 18.7598 126.287 18.125 127.068 17.6172C127.85 17.0898 128.602 16.6992 129.324 16.4453C130.047 16.1914 130.672 16.0449 131.199 16.0059C131.473 15.9863 131.59 16.0156 131.551 16.0938C131.531 16.1719 131.463 16.2598 131.346 16.3574C131.229 16.4551 131.121 16.5527 131.023 16.6504C130.945 16.748 130.984 16.8066 131.141 16.8262C131.277 16.8652 131.385 16.9043 131.463 16.9434C131.561 16.9824 131.658 17.0312 131.756 17.0898L131.99 16.8262C132.127 16.7285 132.254 16.6797 132.371 16.6797C132.508 16.6797 132.625 16.6992 132.723 16.7383C132.82 16.7578 132.898 16.7676 132.957 16.7676C133.016 16.7676 133.055 16.709 133.074 16.5918C133.113 16.377 133.182 16.2598 133.279 16.2402C133.396 16.2012 133.65 16.1816 134.041 16.1816C134.275 16.1816 134.627 16.25 135.096 16.3867C135.584 16.5234 136.111 16.7578 136.678 17.0898C137.264 17.4219 137.85 17.8711 138.436 18.4375C139.041 18.9844 139.588 19.6875 140.076 20.5469C140.584 21.3867 140.994 22.3926 141.307 23.5645C141.619 24.7363 141.775 26.0938 141.775 27.6367ZM131.199 19.0527C130.516 19.4629 129.842 20.0195 129.178 20.7227C128.514 21.4258 127.908 22.2363 127.361 23.1543C126.834 24.0723 126.404 25.0977 126.072 26.2305C125.74 27.3633 125.574 28.5547 125.574 29.8047C125.574 31.1523 125.691 32.373 125.926 33.4668C126.18 34.5605 126.541 35.498 127.01 36.2793C127.479 37.041 128.045 37.6367 128.709 38.0664C129.393 38.4766 130.164 38.6816 131.023 38.6816C131.785 38.6816 132.537 38.4668 133.279 38.0371C134.041 37.6074 134.715 36.9629 135.301 36.1035C135.887 35.2441 136.355 34.1797 136.707 32.9102C137.078 31.6406 137.264 30.166 137.264 28.4863C137.264 26.7871 137.039 25.3613 136.59 24.209C136.141 23.0566 135.633 22.1289 135.066 21.4258C134.52 20.7031 133.992 20.1953 133.484 19.9023C132.977 19.5898 132.664 19.4336 132.547 19.4336C132.273 19.4336 132.059 19.4336 131.902 19.4336C131.766 19.4336 131.531 19.3066 131.199 19.0527ZM164.1 39.8242C164.1 40 163.953 40.2148 163.66 40.4688C163.367 40.7227 162.996 40.8496 162.547 40.8496C162.41 40.8496 162.156 40.7812 161.785 40.6445C161.434 40.5078 161.062 40.3027 160.672 40.0293C160.281 39.7754 159.93 39.4629 159.617 39.0918C159.305 38.7012 159.139 38.2617 159.119 37.7734C159.08 37.5586 159.061 37.2656 159.061 36.8945C159.061 36.5039 159.061 36.0547 159.061 35.5469C159.061 34.7656 159.061 33.8965 159.061 32.9395C159.061 31.9824 159.08 31.0156 159.119 30.0391C158.982 30.7422 158.816 31.4746 158.621 32.2363C158.426 32.9785 158.182 33.7207 157.889 34.4629C157.596 35.2051 157.254 35.9375 156.863 36.6602C156.473 37.3828 156.023 38.0762 155.516 38.7402C155.242 39.0918 154.949 39.3945 154.637 39.6484C154.344 39.8828 154.051 40.0781 153.758 40.2344C153.465 40.4102 153.191 40.5371 152.938 40.6152C152.684 40.6934 152.488 40.7324 152.352 40.7324C152.273 40.7324 152.088 40.6445 151.795 40.4688C151.521 40.3125 151.189 40.1074 150.799 39.8535C150.428 39.5801 150.027 39.2871 149.598 38.9746C149.168 38.6426 148.758 38.3203 148.367 38.0078C147.977 37.6758 147.625 37.373 147.312 37.0996C147 36.8066 146.775 36.5723 146.639 36.3965C146.502 36.2012 146.375 35.8691 146.258 35.4004C146.16 34.9316 146.072 34.3555 145.994 33.6719C145.916 32.9883 145.848 32.2168 145.789 31.3574C145.75 30.498 145.73 29.5801 145.73 28.6035C145.73 28.0762 145.74 27.3926 145.76 26.5527C145.779 25.7129 145.818 24.8145 145.877 23.8574C145.936 22.8809 146.004 21.9043 146.082 20.9277C146.18 19.9316 146.287 19.043 146.404 18.2617C146.541 17.4609 146.697 16.8164 146.873 16.3281C147.049 15.8203 147.254 15.5664 147.488 15.5664C147.645 15.5664 147.918 15.6152 148.309 15.7129C148.699 15.791 149.1 15.8301 149.51 15.8301C150.115 15.8301 150.535 15.7812 150.77 15.6836C151.023 15.5664 151.209 15.5078 151.326 15.5078C151.521 15.5078 151.619 15.6738 151.619 16.0059C151.619 16.1035 151.619 16.2012 151.619 16.2988C151.619 16.377 151.6 16.4746 151.561 16.5918C151.541 16.709 151.492 17.0117 151.414 17.5C151.355 17.9883 151.277 18.6133 151.18 19.375C151.082 20.1367 150.984 20.9961 150.887 21.9531C150.789 22.8906 150.691 23.877 150.594 24.9121C150.516 25.9473 150.447 26.9922 150.389 28.0469C150.33 29.1016 150.301 30.1074 150.301 31.0645C150.301 31.709 150.311 32.3535 150.33 32.998C150.369 33.6426 150.428 34.2285 150.506 34.7559C150.584 35.2832 150.691 35.7129 150.828 36.0449C150.965 36.3574 151.131 36.5137 151.326 36.5137C151.502 36.5137 151.746 36.4355 152.059 36.2793C152.391 36.1035 152.771 35.7617 153.201 35.2539C153.65 34.7461 154.139 34.0234 154.666 33.0859C155.193 32.1484 155.76 30.9082 156.365 29.3652C156.99 27.8027 157.635 25.8984 158.299 23.6523C158.982 21.3867 159.676 18.6914 160.379 15.5664C160.379 15.5078 160.408 15.4688 160.467 15.4492C160.545 15.4102 160.633 15.3906 160.73 15.3906C160.984 15.3906 161.307 15.4199 161.697 15.4785C162.088 15.5176 162.459 15.5859 162.811 15.6836C163.182 15.7617 163.494 15.8594 163.748 15.9766C164.021 16.0938 164.158 16.2207 164.158 16.3574C164.158 17.2363 164.119 18.1934 164.041 19.2285C163.963 20.2637 163.875 21.3379 163.777 22.4512C163.68 23.5449 163.592 24.668 163.514 25.8203C163.436 26.9727 163.396 28.1152 163.396 29.248C163.396 31.2793 163.455 33.2227 163.572 35.0781C163.709 36.9141 163.885 38.4961 164.1 39.8242ZM183.465 18.9355C183.445 19.502 183.387 20.0684 183.289 20.6348C183.211 21.1816 183.094 21.709 182.938 22.2168C182.781 22.7051 182.586 23.1445 182.352 23.5352C182.137 23.9258 181.893 24.2383 181.619 24.4727C181.385 24.668 181.199 24.7656 181.062 24.7656C180.926 24.7656 180.809 24.7266 180.711 24.6484C180.633 24.5703 180.564 24.4824 180.506 24.3848C180.447 24.2871 180.369 24.2285 180.271 24.209C180.193 24.1895 180.086 24.1992 179.949 24.2383C179.832 24.2578 179.705 24.2578 179.568 24.2383C179.451 24.2188 179.334 24.1504 179.217 24.0332C179.119 23.8965 179.051 23.6621 179.012 23.3301C178.973 22.959 178.982 22.4805 179.041 21.8945C179.119 21.2891 179.158 20.7031 179.158 20.1367C179.158 19.6289 179.1 19.209 178.982 18.877C178.885 18.5254 178.699 18.3496 178.426 18.3496C178.289 18.3496 178.045 18.457 177.693 18.6719C177.361 18.8672 176.99 19.2969 176.58 19.9609C176.17 20.625 175.76 21.5918 175.35 22.8613C174.939 24.1113 174.607 25.7812 174.354 27.8711C174.354 30.5664 174.373 32.7344 174.412 34.375C174.451 36.0156 174.471 37.2949 174.471 38.2129C174.471 38.9941 174.451 39.5508 174.412 39.8828C174.373 40.2148 174.275 40.4297 174.119 40.5273C174.021 40.5859 173.826 40.6543 173.533 40.7324C173.26 40.8301 172.957 40.918 172.625 40.9961C172.312 41.0742 172.01 41.1426 171.717 41.2012C171.424 41.2598 171.238 41.2793 171.16 41.2598C171.102 41.2402 170.994 41.1719 170.838 41.0547C170.682 40.957 170.516 40.8301 170.34 40.6738C170.184 40.5176 170.037 40.3516 169.9 40.1758C169.764 40.0195 169.686 39.8828 169.666 39.7656C169.627 39.5703 169.607 39.1309 169.607 38.4473C169.627 37.7441 169.637 36.9043 169.637 35.9277C169.656 34.9512 169.676 33.8867 169.695 32.7344C169.715 31.5625 169.725 30.4004 169.725 29.248C169.725 28.5059 169.744 27.6855 169.783 26.7871C169.842 25.8691 169.9 24.9414 169.959 24.0039C170.037 23.0664 170.115 22.1484 170.193 21.25C170.271 20.3516 170.34 19.5508 170.398 18.8477C170.477 18.125 170.535 17.5293 170.574 17.0605C170.633 16.5723 170.672 16.2793 170.691 16.1816C170.711 16.0254 170.779 15.9668 170.896 16.0059C171.033 16.0449 171.17 16.1133 171.307 16.2109C171.463 16.3086 171.6 16.3965 171.717 16.4746C171.834 16.5527 171.912 16.5527 171.951 16.4746C171.99 16.2988 172.137 16.2793 172.391 16.416C172.645 16.5332 172.879 16.6699 173.094 16.8262C173.172 16.9238 173.26 17.0117 173.357 17.0898C173.475 17.1484 173.582 17.2363 173.68 17.3535C173.777 17.4512 173.855 17.5879 173.914 17.7637C173.992 17.9395 174.031 18.1738 174.031 18.4668C174.031 18.7402 174.051 19.1504 174.09 19.6973C174.129 20.2441 174.178 20.8887 174.236 21.6309C174.451 20.9277 174.705 20.1855 174.998 19.4043C175.311 18.623 175.682 17.9102 176.111 17.2656C176.541 16.6016 177.049 16.0547 177.635 15.625C178.221 15.1953 178.924 14.9805 179.744 14.9805C180.193 14.9805 180.643 15.0684 181.092 15.2441C181.541 15.4199 181.941 15.6836 182.293 16.0352C182.664 16.3672 182.957 16.7773 183.172 17.2656C183.387 17.7539 183.484 18.3105 183.465 18.9355Z" fill="white"/>
</svg>
